<svg id="グループ_65" data-name="グループ 65" xmlns="http://www.w3.org/2000/svg" xmlns:xlink="http://www.w3.org/1999/xlink" width="333.002" height="86.52" viewBox="0 0 333.002 86.52">
  <defs>
    <clipPath id="clip-path">
      <rect id="長方形_58" data-name="長方形 58" width="333.002" height="86.52" fill="none"/>
    </clipPath>
  </defs>
  <g id="グループ_64" data-name="グループ 64" transform="translate(0 0)" clip-path="url(#clip-path)">
    <path id="パス_95" data-name="パス 95" d="M0,0C19.908,25.326,46.979,42.353,75.765,53.453c28.968,10.926,59.861,15.963,90.736,16.09,30.875-.152,61.763-5.183,90.727-16.112C286.009,42.328,313.076,25.314,333,0c-6.781,14.621-17.3,27.546-29.408,38.582-1.528,1.367-3.026,2.794-4.636,4.059l-4.867,3.776c-3.2,2.614-6.647,4.838-10.058,7.153a119.6,119.6,0,0,1-10.581,6.377c-3.542,2.135-7.3,3.809-10.992,5.658C232.642,79.846,199.438,86.372,166.5,86.52c-32.936-.172-66.135-6.692-95.948-20.939A171.773,171.773,0,0,1,29.422,38.565C17.312,27.535,6.793,14.613,0,0" transform="translate(0 0)" fill="#f38200"/>
  </g>
</svg>
