<svg id="グループ_18" data-name="グループ 18" xmlns="http://www.w3.org/2000/svg" xmlns:xlink="http://www.w3.org/1999/xlink" width="80.783" height="21.243" viewBox="0 0 80.783 21.243">
  <defs>
    <clipPath id="clip-path">
      <rect id="長方形_42" data-name="長方形 42" width="80.783" height="21.243" fill="none"/>
    </clipPath>
  </defs>
  <g id="グループ_17" data-name="グループ 17" transform="translate(0 0)" clip-path="url(#clip-path)">
    <path id="パス_60" data-name="パス 60" d="M44.175,14.836c1.05.317,2.116.578,3.19.79.558-.257,1.1-.536,1.642-.832A40.021,40.021,0,0,1,44.6,13.527c-4.869-1.711-9.283-4.476-13.929-6.988a66.813,66.813,0,0,0-7.217-3.362A46.057,46.057,0,0,0,15.788.968,53.33,53.33,0,0,0,7.9.047,62.2,62.2,0,0,0,0,.255c2.626.169,5.239.3,7.826.652a66.713,66.713,0,0,1,7.661,1.4A59.3,59.3,0,0,1,29.841,8.094c2.3,1.214,4.579,2.526,6.946,3.721a44.864,44.864,0,0,0,7.388,3.021" transform="translate(0 0)" fill="#fff"/>
    <path id="パス_61" data-name="パス 61" d="M72,16.917l.1-.039a30.5,30.5,0,0,0,5.69-2.988c.88-.6,1.751-1.225,2.6-1.86l2.526-1.918A44.71,44.71,0,0,1,93.6,3.651,60.711,60.711,0,0,1,105.759.4,45.593,45.593,0,0,0,93.272,2.795c-.988.409-2,.762-2.964,1.237l-1.43.736a15,15,0,0,0-1.406.777c-.9.57-1.835,1.111-2.689,1.749l-1.3.926-1.27.958L79.7,11.114c-.836.639-1.687,1.241-2.533,1.856a32.831,32.831,0,0,1-5.42,3.065,30.736,30.736,0,0,1-2.972,1.132q1.616-.087,3.226-.25" transform="translate(-24.977 -0.145)" fill="#fff"/>
    <path id="パス_62" data-name="パス 62" d="M0,.4C4.83,6.544,11.4,10.674,18.38,13.367a63.109,63.109,0,0,0,22.011,3.9A63.213,63.213,0,0,0,62.4,13.361C69.383,10.668,75.949,6.541,80.783.4a29.988,29.988,0,0,1-7.135,9.36c-.371.331-.734.678-1.125.985l-1.181.916c-.775.634-1.613,1.174-2.44,1.735a28.909,28.909,0,0,1-2.567,1.547c-.859.518-1.771.924-2.666,1.372a54.685,54.685,0,0,1-23.278,5.074,54.754,54.754,0,0,1-23.276-5.08A41.644,41.644,0,0,1,7.138,9.755,30,30,0,0,1,0,.4" transform="translate(0 -0.145)" fill="#fff"/>
  </g>
</svg>
