<svg id="グループ_26" data-name="グループ 26" xmlns="http://www.w3.org/2000/svg" xmlns:xlink="http://www.w3.org/1999/xlink" width="600" height="118.976" viewBox="0 0 600 118.976">
  <defs>
    <clipPath id="clip-path">
      <rect id="長方形_45" data-name="長方形 45" width="600" height="118.976" fill="none"/>
    </clipPath>
  </defs>
  <g id="グループ_25" data-name="グループ 25" transform="translate(0 0)" clip-path="url(#clip-path)">
    <path id="パス_73" data-name="パス 73" d="M0,1.859C26.214.259,52.629-.491,79.066.347a724.43,724.43,0,0,1,78.989,6.726,598.812,598.812,0,0,1,76.783,16.112c24.918,6.972,48.878,15.547,72.256,24.541,46.518,18.337,90.7,38.516,139.454,51a520.5,520.5,0,0,0,75.235,13.455c25.72,2.839,51.89,3.773,78.217,4.069a566.606,566.606,0,0,1-79.118,2.225,469.482,469.482,0,0,1-78.62-10.189c-25.76-5.387-50.2-13.514-73.968-22.049-23.7-8.719-46.477-18.3-69.537-27.161-18.506-7.388-37.321-14.243-56.978-20.533a671.789,671.789,0,0,0-86.728-21.7c-25.16-4.52-50.8-7.86-76.7-10.229C52.453,4.05,26.287,3.1,0,1.859" transform="translate(0 0)" fill="#d4d5d5"/>
  </g>
</svg>
