<svg xmlns="http://www.w3.org/2000/svg" width="271.872" height="21.243" viewBox="0 0 271.872 21.243">
  <g id="グループ_1720" data-name="グループ 1720" transform="translate(-10442.73 409)">
    <g id="グループ_19" data-name="グループ 19" transform="translate(10442.73 -409)">
      <path id="パス_63" data-name="パス 63" d="M21.074,0,19.429,19.043H5.754L7.4,0H1.838L.013,21.088,0,21.243H24.8l.007-.1.182-2.1L26.638,0Z" transform="translate(0 0)" fill="#fff"/>
      <path id="パス_64" data-name="パス 64" d="M47.463,0,46.052,16.314,31.244,0H25.68L23.864,21.037l-.018.207h5.563l.191-2.2L30.857,4.475,43.688,19.043l1.938,2.2H51.29l.018-.207.172-1.994L53.125,0Z" transform="translate(5.489 0)" fill="#fff"/>
      <path id="パス_65" data-name="パス 65" d="M57.341,2.2H71.26l.771,5.136-.586,6.568-1.7,5.136H55.884ZM51.957,0,50.279,19.042h-.01l-.185,2.2h23.3l2.42-7.337.588-6.568L75.293,0Z" transform="translate(11.53)" fill="#fff"/>
      <path id="パス_66" data-name="パス 66" d="M75.615,0,73.969,19.043l-.191,2.2H98.508l.186-2.2H79.531l.712-8.073H98.948l.185-2.2H80.419L80.987,2.2h19.136l.185-2.2Z" transform="translate(16.984 0)" fill="#fff"/>
      <path id="パス_67" data-name="パス 67" d="M196.827,0l-1.411,16.314L180.608,0h-5.564l-1.817,21.036-.017.207h5.563l.189-2.2,1.26-14.568,12.83,14.568,1.939,2.2h5.664l.009-.1.182-2.1L202.489,0Z" transform="translate(39.872 0)" fill="#fff"/>
      <path id="パス_68" data-name="パス 68" d="M201.27,0l-1.835,21.243h24.731l.091-1.1.092-1.1H205.187l.711-8.073H224.6l.186-2.2H206.075l.568-6.567h19.134l.186-2.2Z" transform="translate(45.909 0)" fill="#fff"/>
      <path id="パス_69" data-name="パス 69" d="M104.112,2.2h13.635l-.567,6.567H103.544ZM98.7,0,96.881,21.036l-.017.207h5.6l.9-10.273h9.423l3.09,10.273h5.788l-.662-2.2-2.427-8.073h3.969L123.5,0Z" transform="translate(22.298)" fill="#fff"/>
      <path id="パス_70" data-name="パス 70" d="M137.829,0,136,21.165l-.006.079h24.729l.185-2.2h-19.16L143.393,0Z" transform="translate(31.305 0)" fill="#fff"/>
      <path id="パス_71" data-name="パス 71" d="M161.245,0l-.185,2.2h4.052l-1.457,16.84H159.63l-.183,2.2h13.391l.185-2.2h-3.8L170.675,2.2h3.775l.185-2.2Z" transform="translate(36.704 0)" fill="#fff"/>
    </g>
  </g>
</svg>
