<svg xmlns="http://www.w3.org/2000/svg" xmlns:xlink="http://www.w3.org/1999/xlink" width="386.77" height="21.243" viewBox="0 0 386.77 21.243">
  <defs>
    <clipPath id="clip-path">
      <rect id="長方形_42" data-name="長方形 42" width="80.783" height="21.243" fill="none"/>
    </clipPath>
  </defs>
  <g id="グループ_1723" data-name="グループ 1723" transform="translate(-10442.73 409)">
    <g id="グループ_18" data-name="グループ 18" transform="translate(10748.717 -409)">
      <g id="グループ_17" data-name="グループ 17" transform="translate(0 0)" clip-path="url(#clip-path)">
        <path id="パス_60" data-name="パス 60" d="M44.175,14.836c1.05.317,2.116.578,3.19.79.558-.257,1.1-.536,1.642-.832A40.021,40.021,0,0,1,44.6,13.527c-4.869-1.711-9.283-4.476-13.929-6.988a66.813,66.813,0,0,0-7.217-3.362A46.057,46.057,0,0,0,15.788.968,53.33,53.33,0,0,0,7.9.047,62.2,62.2,0,0,0,0,.255c2.626.169,5.239.3,7.826.652a66.713,66.713,0,0,1,7.661,1.4A59.3,59.3,0,0,1,29.841,8.094c2.3,1.214,4.579,2.526,6.946,3.721a44.864,44.864,0,0,0,7.388,3.021" transform="translate(0 0)" fill="#fff"/>
        <path id="パス_61" data-name="パス 61" d="M72,16.917l.1-.039a30.5,30.5,0,0,0,5.69-2.988c.88-.6,1.751-1.225,2.6-1.86l2.526-1.918A44.71,44.71,0,0,1,93.6,3.651,60.711,60.711,0,0,1,105.759.4,45.593,45.593,0,0,0,93.272,2.795c-.988.409-2,.762-2.964,1.237l-1.43.736a15,15,0,0,0-1.406.777c-.9.57-1.835,1.111-2.689,1.749l-1.3.926-1.27.958L79.7,11.114c-.836.639-1.687,1.241-2.533,1.856a32.831,32.831,0,0,1-5.42,3.065,30.736,30.736,0,0,1-2.972,1.132q1.616-.087,3.226-.25" transform="translate(-24.977 -0.145)" fill="#fff"/>
        <path id="パス_62" data-name="パス 62" d="M0,.4C4.83,6.544,11.4,10.674,18.38,13.367a63.109,63.109,0,0,0,22.011,3.9A63.213,63.213,0,0,0,62.4,13.361C69.383,10.668,75.949,6.541,80.783.4a29.988,29.988,0,0,1-7.135,9.36c-.371.331-.734.678-1.125.985l-1.181.916c-.775.634-1.613,1.174-2.44,1.735a28.909,28.909,0,0,1-2.567,1.547c-.859.518-1.771.924-2.666,1.372a54.685,54.685,0,0,1-23.278,5.074,54.754,54.754,0,0,1-23.276-5.08A41.644,41.644,0,0,1,7.138,9.755,30,30,0,0,1,0,.4" transform="translate(0 -0.145)" fill="#fff"/>
      </g>
    </g>
    <g id="グループ_1720" data-name="グループ 1720">
      <g id="グループ_19" data-name="グループ 19" transform="translate(10442.73 -409)">
        <path id="パス_63" data-name="パス 63" d="M21.074,0,19.429,19.043H5.754L7.4,0H1.838L.013,21.088,0,21.243H24.8l.007-.1.182-2.1L26.638,0Z" transform="translate(0 0)" fill="#fff"/>
        <path id="パス_64" data-name="パス 64" d="M47.463,0,46.052,16.314,31.244,0H25.68L23.864,21.037l-.018.207h5.563l.191-2.2L30.857,4.475,43.688,19.043l1.938,2.2H51.29l.018-.207.172-1.994L53.125,0Z" transform="translate(5.489 0)" fill="#fff"/>
        <path id="パス_65" data-name="パス 65" d="M57.341,2.2H71.26l.771,5.136-.586,6.568-1.7,5.136H55.884ZM51.957,0,50.279,19.042h-.01l-.185,2.2h23.3l2.42-7.337.588-6.568L75.293,0Z" transform="translate(11.53)" fill="#fff"/>
        <path id="パス_66" data-name="パス 66" d="M75.615,0,73.969,19.043l-.191,2.2H98.508l.186-2.2H79.531l.712-8.073H98.948l.185-2.2H80.419L80.987,2.2h19.136l.185-2.2Z" transform="translate(16.984 0)" fill="#fff"/>
        <path id="パス_67" data-name="パス 67" d="M196.827,0l-1.411,16.314L180.608,0h-5.564l-1.817,21.036-.017.207h5.563l.189-2.2,1.26-14.568,12.83,14.568,1.939,2.2h5.664l.009-.1.182-2.1L202.489,0Z" transform="translate(39.872 0)" fill="#fff"/>
        <path id="パス_68" data-name="パス 68" d="M201.27,0l-1.835,21.243h24.731l.091-1.1.092-1.1H205.187l.711-8.073H224.6l.186-2.2H206.075l.568-6.567h19.134l.186-2.2Z" transform="translate(45.909 0)" fill="#fff"/>
        <path id="パス_69" data-name="パス 69" d="M104.112,2.2h13.635l-.567,6.567H103.544ZM98.7,0,96.881,21.036l-.017.207h5.6l.9-10.273h9.423l3.09,10.273h5.788l-.662-2.2-2.427-8.073h3.969L123.5,0Z" transform="translate(22.298)" fill="#fff"/>
        <path id="パス_70" data-name="パス 70" d="M137.829,0,136,21.165l-.006.079h24.729l.185-2.2h-19.16L143.393,0Z" transform="translate(31.305 0)" fill="#fff"/>
        <path id="パス_71" data-name="パス 71" d="M161.245,0l-.185,2.2h4.052l-1.457,16.84H159.63l-.183,2.2h13.391l.185-2.2h-3.8L170.675,2.2h3.775l.185-2.2Z" transform="translate(36.704 0)" fill="#fff"/>
      </g>
    </g>
  </g>
</svg>
